<svg width="50" height="34" viewBox="0 0 50 34" fill="none" xmlns="http://www.w3.org/2000/svg">
<path d="M27.4023 0.613284C27.1094 0.916019 26.9141 1.60938 23.3398 15.0664C21.2695 22.8398 19.5605 29.207 19.5312 29.207C19.502 29.207 18.0078 25.8965 16.2109 21.8535C12.0996 12.5859 12.3535 13.123 11.9824 12.9375C11.543 12.7031 10.9473 12.8105 10.6445 13.1816C10.5078 13.3379 9.54101 15.1836 8.49609 17.2832L6.60156 21.0918L3.58398 21.1211L0.566406 21.1504L0.283203 21.4727C-0.117187 21.9219 -0.117187 22.5566 0.283203 22.9668L0.566406 23.25H4.13086C7.60742 23.25 7.69531 23.25 7.94922 23.0449C8.125 22.9082 8.75976 21.7461 9.81445 19.6465L11.4062 16.4629L11.6016 16.9023C12.2559 18.4063 18.5156 32.4785 18.7207 32.8984C18.9844 33.4648 19.3164 33.6992 19.8437 33.6992C20.2344 33.6992 20.5566 33.4941 20.7422 33.1328C20.8105 32.9863 22.5293 26.6191 24.5703 18.9727C26.6016 11.3359 28.291 5.08594 28.3203 5.08594C28.3496 5.08594 30.4395 10.457 32.959 17.0195C36.3769 25.9063 37.6172 29.0313 37.8125 29.2266C38.0273 29.4512 38.1543 29.5 38.5547 29.5C39.1797 29.5 39.1309 29.5586 41.4551 26.0527L43.3105 23.2598L46.3672 23.25H49.4336L49.7168 22.9668C50.1172 22.5566 50.1172 21.9219 49.7168 21.4727L49.4336 21.1504L45.9863 21.1211C43.457 21.1016 42.4707 21.1211 42.2559 21.209C42.041 21.2969 41.582 21.9121 40.3906 23.709L38.7988 26.082L33.9746 13.5137C28.6719 -0.304684 28.9453 0.300784 28.125 0.300784C27.793 0.300784 27.6562 0.359378 27.4023 0.613284Z" fill="#8A8A8A"/>
</svg>
