<svg width="50" height="50" viewBox="0 0 50 50" fill="none" xmlns="http://www.w3.org/2000/svg">
<path d="M17.7707 0.0819571C17.038 0.386295 16.4421 1.11406 16.1197 2.08C15.9536 2.58282 15.9145 2.95332 15.9145 4.42208C15.9145 7.30668 15.8266 7.24052 19.324 7.24052H21.8738V9.22533H21.1216C16.3444 9.23856 12.5148 11.3028 9.35928 15.5635C6.17447 19.8904 4.67976 24.9847 4.67976 31.5611V33.2813L4.14245 33.6253C3.42928 34.1016 2.77474 35.0014 2.45235 35.9277C2.20812 36.6157 2.18858 36.8407 2.15927 38.6403L2.12996 40.5854L1.71965 40.9691C1.07487 41.5778 0.605944 42.3055 0.312864 43.1656C0.0490912 43.9331 0.0393219 44.0522 0.0100138 46.381C-0.0290635 49.0671 0.0295525 49.4641 0.488712 49.7817C0.899024 50.0728 49.101 50.0728 49.5113 49.7817C49.9704 49.4641 50.0291 49.0671 49.99 46.381C49.9607 43.986 49.9607 43.9463 49.6578 43.0862C49.4331 42.4511 49.1889 42.0144 48.7004 41.4322L48.0557 40.6515V38.799C48.0557 37.1715 48.0263 36.8539 47.8212 36.2056C47.704 35.7954 47.4402 35.1999 47.2448 34.8823C46.8833 34.2737 46.0529 33.5194 45.5938 33.3739L45.3202 33.2813V31.5743C45.3202 28.6103 45.0662 26.3344 44.4801 23.9129C42.7509 16.8205 38.2668 11.3425 32.9034 9.78108C31.8972 9.47674 30.0605 9.22533 28.8882 9.22533H28.1262V7.24052H30.676C34.1734 7.24052 34.0855 7.30668 34.0855 4.42208C34.0855 2.95332 34.0464 2.58282 33.8803 2.08C33.6361 1.35224 33.1867 0.690633 32.6689 0.320135C32.2782 0.0290287 32.2586 0.0290287 25.1465 0.00256457C21.229 -0.0106675 17.9075 0.0290287 17.7707 0.0819571ZM31.9362 2.87393C32.0828 3.07241 32.1316 3.31059 32.1316 3.86633V4.5941H17.8684V3.86633C17.8684 3.31059 17.9172 3.07241 18.0638 2.87393C18.2592 2.60929 18.3862 2.60929 25 2.60929C31.6138 2.60929 31.7409 2.60929 31.9362 2.87393ZM26.1723 9.22533H23.8277V7.24052H26.1723V9.22533ZM30.7151 12.0041C34.0562 12.4275 36.9186 14.2403 39.2632 17.4292C40.8459 19.5596 41.9694 22.0075 42.6337 24.7863C43.1124 26.7181 43.2784 28.1604 43.3371 30.8201L43.3957 33.1754H6.60432L6.66294 30.8201C6.72155 28.134 6.8974 26.652 7.36633 24.7466C9.10527 17.7071 13.7066 12.7451 19.1872 12.0173C20.3596 11.8585 29.4841 11.8453 30.7151 12.0041ZM45.33 36.1262C45.9748 36.7084 46.1018 37.145 46.1018 38.7461V40.1619L44.2358 40.2149L42.3699 40.2546L42.0866 40.6912C41.6958 41.2734 41.6958 41.9218 42.0866 42.4511L42.3699 42.8348H44.4117C46.6 42.8348 47.0006 42.9142 47.4793 43.4567C47.9384 43.986 48.0557 44.5021 48.0557 46.0105V47.3337H1.94434V46.0105C1.94434 45.1901 1.99319 44.5153 2.08112 44.2507C2.24719 43.6949 2.72589 43.1524 3.19482 42.9671C3.43905 42.8878 8.51911 42.8348 18.4936 42.8348H33.4407L33.7143 42.4776C33.9292 42.1997 33.9878 42.0012 33.9878 41.5778C33.9878 40.8897 33.7826 40.4927 33.3235 40.3207C33.0792 40.2413 28.1555 40.1884 18.5327 40.1884H4.0936V38.7461C4.0936 37.145 4.2206 36.7084 4.86538 36.1262L5.19754 35.8218H44.9978L45.33 36.1262Z" fill="#FFFEFE"/>
</svg>
