<svg width="50" height="50" viewBox="0 0 50 50" fill="none" xmlns="http://www.w3.org/2000/svg">
<g clip-path="url(#clip0_158_10)">
<path d="M21.3562 2.00807C21.438 2.00469 21.5199 2.00132 21.6042 1.99784C22.0178 1.99503 22.2815 2.02017 22.6093 2.2854C23.0155 2.7108 22.9615 3.05761 22.9574 3.61992C22.9571 3.71283 22.9569 3.80575 22.9566 3.90148C22.9556 4.21483 22.9539 4.52818 22.9522 4.84153C22.9514 5.06544 22.9506 5.28935 22.9499 5.51326C22.9488 5.87165 22.9476 6.23005 22.9462 6.58845C22.9428 7.47845 22.9412 8.36844 22.9408 9.25845C22.9407 9.32283 22.9407 9.38721 22.9407 9.45354C22.9404 9.98394 22.9402 10.5143 22.94 11.0447C22.9398 11.5228 22.9396 12.0009 22.9393 12.479C22.9392 12.5471 22.9392 12.6153 22.9391 12.6855C22.9383 13.7875 22.934 14.8895 22.9284 15.9915C22.9228 17.1239 22.9214 18.2563 22.9235 19.3888C22.9245 20.0242 22.9237 20.6595 22.9182 21.2949C22.9131 21.8936 22.913 22.492 22.9167 23.0907C22.9172 23.3097 22.9159 23.5286 22.9126 23.7476C22.8946 25.0018 22.9592 25.8571 23.8559 26.7866C23.9434 26.8738 24.0309 26.961 24.1211 27.0508C24.2422 27.2009 24.3615 27.3526 24.477 27.507C24.5282 27.5729 24.5793 27.6387 24.6321 27.7065C24.683 27.7721 24.7339 27.8377 24.7864 27.9053C24.903 28.0553 25.0196 28.2054 25.1362 28.3554C25.1944 28.4304 25.2526 28.5054 25.3126 28.5826C25.5989 28.951 25.8854 29.3193 26.1719 29.6875C26.2858 29.834 26.3997 29.9805 26.5137 30.127C26.5982 30.2357 26.5982 30.2357 26.6846 30.3467C29.1341 33.4961 31.5836 36.6455 34.0332 39.7949C34.0896 39.8675 34.146 39.94 34.2042 40.0148C34.3178 40.1609 34.4314 40.307 34.545 40.453C34.8346 40.8254 35.1243 41.1977 35.4141 41.5699C35.7516 42.0034 36.0888 42.4372 36.4258 42.8711C36.5015 42.9686 36.5015 42.9686 36.5788 43.0681C36.7172 43.2464 36.8553 43.4249 36.9934 43.6035C37.0706 43.7032 37.1477 43.8029 37.2272 43.9057C37.4483 44.2023 37.522 44.3799 37.5427 44.7449C37.5486 44.8168 37.5545 44.8886 37.5606 44.9627C37.3983 45.6378 36.7098 46.0892 36.1755 46.4783C36.1069 46.5288 36.0383 46.5793 35.9676 46.6313C32.8844 48.8753 29.3211 50.0023 25.5112 50.0198C25.414 50.0204 25.3168 50.021 25.2166 50.0215C25.0118 50.0225 24.8069 50.0231 24.6021 50.0235C24.2968 50.0244 23.9915 50.0274 23.6862 50.0305C21.8978 50.04 20.1332 49.8818 18.396 49.4385C18.295 49.4133 18.1941 49.3881 18.0901 49.3621C13.9873 48.3116 10.0701 46.2532 7.12889 43.1641C7.05235 43.0875 6.97581 43.011 6.89696 42.9321C6.81236 42.8475 6.72777 42.763 6.64061 42.6758C6.57867 42.6173 6.51674 42.5587 6.45292 42.4984C3.17279 39.3404 1.12692 34.7874 0.292952 30.3711C0.276965 30.291 0.260977 30.2109 0.244505 30.1284C-0.281174 27.3963 -0.23454 24.2114 0.292952 21.4844C0.30971 21.3963 0.326469 21.3083 0.343735 21.2176C1.00677 17.8444 2.24781 14.4111 4.29686 11.6211C4.34013 11.5612 4.3834 11.5012 4.42799 11.4394C4.99103 10.6605 5.57057 9.91663 6.229 9.21556C6.41455 9.01725 6.58909 8.81462 6.76268 8.60597C10.0294 4.87479 15.1747 2.4254 20.0958 2.06424C20.516 2.03817 20.9353 2.01807 21.3562 2.00807ZM19.128 4.3831C19.026 4.40207 18.9239 4.42104 18.8187 4.44058C18.6608 4.47218 18.6608 4.47218 18.4997 4.50441C18.3326 4.5376 18.3326 4.5376 18.162 4.57147C14.9099 5.24256 11.9346 6.82702 9.49858 9.07441C9.29668 9.2596 9.09007 9.43656 8.8806 9.61305C8.41773 10.0188 8.0168 10.4702 7.61717 10.9375C7.54594 11.02 7.54594 11.02 7.47326 11.1042C3.48063 15.7569 1.75843 21.886 2.17016 27.9574C2.61761 32.8699 4.74922 37.7511 8.30076 41.2109C8.53446 41.4433 8.76672 41.6754 8.99199 41.9159C12.1609 45.2444 16.8901 47.2004 21.3867 47.7539C21.4549 47.7632 21.523 47.7725 21.5932 47.782C22.4464 47.885 23.3058 47.871 24.1638 47.8699C24.2469 47.8698 24.33 47.8698 24.4156 47.8697C25.5967 47.8674 26.7623 47.8537 27.9297 47.6563C28.0077 47.6437 28.0858 47.6311 28.1662 47.6181C30.3773 47.2519 32.3512 46.4578 34.198 45.1782C34.256 45.1387 34.3141 45.0992 34.3739 45.0585C34.551 44.9349 34.551 44.9349 34.7656 44.7266C34.7656 44.2254 34.5485 44.0228 34.2407 43.6585C34.1318 43.526 34.0229 43.3935 33.9142 43.261C33.8324 43.162 33.8324 43.162 33.749 43.061C33.5327 42.7964 33.325 42.5263 33.1177 42.2547C32.7335 41.7523 32.3465 41.2522 31.958 40.7532C31.9001 40.6788 31.8422 40.6044 31.7826 40.5278C31.6641 40.3757 31.5456 40.2235 31.4272 40.0714C31.1401 39.7026 30.8533 39.3337 30.5664 38.9649C30.4525 38.8184 30.3385 38.6719 30.2246 38.5254C28.1738 35.8887 26.123 33.252 24.0722 30.6152C24.0158 30.5427 23.9594 30.4701 23.9012 30.3954C23.7877 30.2494 23.6743 30.1035 23.5608 29.9576C23.2692 29.5824 22.9772 29.2076 22.6845 28.8334C22.5946 28.7183 22.5946 28.7183 22.5029 28.6009C22.3904 28.4568 22.2777 28.3129 22.1649 28.1691C22.0613 28.0363 21.9592 27.9023 21.8588 27.7671C21.6846 27.5363 21.6846 27.5363 21.4802 27.3382C20.6746 26.4441 20.7897 25.4494 20.8008 24.308C20.8 24.0894 20.7989 23.8708 20.7975 23.6523C20.7947 23.0613 20.7967 22.4705 20.7995 21.8796C20.8016 21.2611 20.7993 20.6427 20.7975 20.0243C20.7951 18.9871 20.7954 17.9499 20.7978 16.9126C20.8002 15.8448 20.801 14.7769 20.7996 13.7091C20.7995 13.6431 20.7994 13.5772 20.7993 13.5093C20.7989 13.1785 20.7984 12.8477 20.7979 12.5169C20.7939 9.77685 20.7955 7.03688 20.8008 4.29689C20.6285 4.29592 20.4563 4.29524 20.2841 4.29467C20.1882 4.29425 20.0923 4.29384 19.9935 4.29342C19.6974 4.29727 19.419 4.32875 19.128 4.3831Z" fill="#8A8A8A"/>
<path d="M33.844 1.19019C37.2034 2.33001 40.4151 4.25648 42.8711 6.83594C42.9476 6.91248 43.0241 6.98902 43.103 7.06788C43.1876 7.15247 43.2722 7.23707 43.3594 7.32422C43.4523 7.41203 43.4523 7.41203 43.547 7.50161C47.5733 11.3779 49.9224 17.3816 50.0386 22.9125C50.0399 23.0253 50.0413 23.1382 50.0427 23.2544C50.0449 23.3627 50.0471 23.471 50.0493 23.5826C50.0471 24.3352 50.0471 24.3352 49.8142 24.7246C49.5325 24.969 49.383 25.0122 49.0192 25.0131C48.8946 25.0138 48.8946 25.0138 48.7674 25.0144C48.6756 25.0144 48.5838 25.0144 48.4892 25.0144C48.3921 25.0147 48.295 25.0151 48.1949 25.0155C47.8674 25.0165 47.5398 25.0169 47.2123 25.0173C46.9783 25.0179 46.7443 25.0186 46.5103 25.0192C45.8066 25.0211 45.1029 25.0221 44.3992 25.023C44.068 25.0234 43.7367 25.024 43.4055 25.0245C42.3046 25.0261 41.2038 25.0276 40.1029 25.0283C39.8171 25.0285 39.5314 25.0286 39.2457 25.0288C39.1746 25.0289 39.1036 25.0289 39.0304 25.029C37.8796 25.0298 36.7287 25.0323 35.5778 25.0354C34.3967 25.0387 33.2156 25.0404 32.0345 25.0407C31.3711 25.0409 30.7078 25.0418 30.0444 25.0443C29.4206 25.0466 28.7968 25.047 28.1729 25.046C27.9437 25.0459 27.7144 25.0465 27.4852 25.0479C27.1727 25.0496 26.8604 25.0489 26.5479 25.0476C26.4112 25.0492 26.4112 25.0492 26.2717 25.0509C25.8606 25.0468 25.6435 25.036 25.2877 24.8139C25.0286 24.5352 24.9878 24.3891 24.9869 24.0193C24.9864 23.9362 24.986 23.8531 24.9855 23.7675C24.9856 23.6757 24.9856 23.5839 24.9856 23.4893C24.9852 23.3921 24.9849 23.295 24.9845 23.1949C24.9834 22.8674 24.9831 22.5398 24.9827 22.2123C24.9821 21.9783 24.9814 21.7443 24.9807 21.5103C24.9789 20.8066 24.9778 20.1029 24.977 19.3992C24.9765 19.068 24.976 18.7368 24.9755 18.4055C24.9738 17.3047 24.9724 16.2038 24.9717 15.1029C24.9715 14.8172 24.9713 14.5314 24.9711 14.2457C24.9711 14.1747 24.9711 14.1036 24.971 14.0305C24.9702 12.8796 24.9677 11.7287 24.9645 10.5778C24.9613 9.39672 24.9596 8.21561 24.9592 7.03449C24.959 6.37115 24.9582 5.70781 24.9557 5.04447C24.9534 4.42062 24.953 3.7968 24.954 3.17295C24.9541 2.94371 24.9534 2.71447 24.9521 2.48523C24.9504 2.17277 24.9511 1.86041 24.9523 1.54795C24.9513 1.4568 24.9502 1.36564 24.9491 1.27172C24.9532 0.860633 24.964 0.643571 25.1861 0.28778C26.7673 -1.18194 32.0525 0.611067 33.844 1.19019ZM27.1484 2.14844C27.1484 8.98047 27.1484 15.8125 27.1484 22.8516C33.9804 22.8516 40.8125 22.8516 47.8515 22.8516C47.5736 18.6821 46.3158 14.7343 43.8476 11.3281C43.808 11.2733 43.7684 11.2185 43.7276 11.162C43.0002 10.1661 42.1811 9.26961 41.3086 8.39844C41.2416 8.32694 41.1746 8.25544 41.1056 8.18177C37.5102 4.40528 32.2469 2.48834 27.1484 2.14844Z" fill="#8A8A8A"/>
<path d="M28.5739 27.0371C28.7058 27.0366 28.7058 27.0366 28.8404 27.0362C29.1369 27.0353 29.4335 27.0352 29.73 27.035C29.9418 27.0346 30.1537 27.0341 30.3656 27.0336C30.9424 27.0323 31.5193 27.0317 32.0961 27.0312C32.4563 27.0309 32.8164 27.0305 33.1765 27.0301C34.3024 27.0288 35.4283 27.0278 36.5542 27.0275C37.8554 27.027 39.1566 27.0253 40.4578 27.0225C41.4626 27.0204 42.4674 27.0194 43.4721 27.0192C44.0727 27.0191 44.6733 27.0186 45.2738 27.0168C45.8387 27.0152 46.4035 27.015 46.9684 27.0159C47.1759 27.0159 47.3834 27.0155 47.5909 27.0145C47.8738 27.0133 48.1567 27.0139 48.4397 27.0149C48.5633 27.0137 48.5633 27.0137 48.6894 27.0125C49.1412 27.0163 49.4391 27.0489 49.8047 27.3438C50.1058 27.7955 50.0332 28.2524 50.0305 28.7842C50.03 28.8981 50.0294 29.012 50.0288 29.1294C49.9825 32.5179 49.031 35.8319 47.5586 38.8672C47.5278 38.9313 47.497 38.9954 47.4653 39.0614C46.7199 40.5937 45.7392 42.069 44.6289 43.3594C44.5378 43.4683 44.4467 43.5773 44.3558 43.6863C42.7002 45.6587 42.7002 45.6587 41.8945 45.9961C41.509 46.0083 41.2684 46.0041 40.9492 45.7867C40.4615 45.3258 40.0682 44.7642 39.6584 44.2345C39.3315 43.814 38.9932 43.4034 38.6536 42.9932C38.2362 42.4886 37.8216 41.9825 37.4142 41.47C37.1356 41.1216 36.8539 40.7757 36.5723 40.4297C36.1681 39.933 35.766 39.435 35.3668 38.9343C35.0866 38.5851 34.804 38.2379 34.5215 37.8906C34.1174 37.394 33.7152 36.8959 33.316 36.3953C33.0359 36.0461 32.7533 35.6988 32.4707 35.3516C32.0666 34.8549 31.6644 34.3569 31.2653 33.8562C30.9851 33.507 30.7025 33.1598 30.4199 32.8125C30.0159 32.3159 29.6135 31.8181 29.2149 31.3171C29.0439 31.1045 28.8716 30.8932 28.6983 30.6824C28.3742 30.2879 28.0534 29.8908 27.7344 29.4922C27.6573 29.3965 27.5803 29.3008 27.5009 29.2023C27.2318 28.8478 27.0124 28.5533 26.9775 28.1006C27.0704 27.6365 27.2037 27.4758 27.5391 27.1484C27.8612 26.9874 28.2198 27.0367 28.5739 27.0371ZM30.4688 29.1992C30.663 29.523 30.8261 29.7816 31.0619 30.064C31.1187 30.1323 31.1754 30.2006 31.2338 30.271C31.3234 30.3779 31.3234 30.3779 31.4148 30.4871C31.5392 30.6368 31.6636 30.7866 31.7879 30.9364C31.8473 31.008 31.9068 31.0795 31.968 31.1532C32.217 31.4541 32.46 31.7595 32.703 32.0652C32.9816 32.4136 33.2633 32.7595 33.5449 33.1055C33.949 33.6021 34.3512 34.1002 34.7504 34.6008C35.0305 34.95 35.3131 35.2973 35.5957 35.6445C35.9998 36.1412 36.402 36.6392 36.8011 37.1399C37.0813 37.4891 37.3639 37.8363 37.6465 38.1836C38.0506 38.6803 38.4528 39.1783 38.8519 39.679C39.1321 40.0282 39.4147 40.3754 39.6973 40.7227C41.0889 42.4341 41.0889 42.4341 41.6992 43.2617C45.351 39.623 47.4431 34.7142 47.8516 29.5898C47.8516 29.4609 47.8516 29.332 47.8516 29.1992C42.1152 29.1992 36.3789 29.1992 30.4688 29.1992Z" fill="#8A8A8A"/>
</g>
<defs>
<clipPath id="clip0_158_10">
<rect width="50" height="50" fill="white"/>
</clipPath>
</defs>
</svg>
