<svg width="50" height="50" viewBox="0 0 50 50" fill="none" xmlns="http://www.w3.org/2000/svg">
<path d="M36.0781 0.144357C35.7926 0.212988 35.3015 0.43032 34.9931 0.613336C34.6163 0.830668 29.0544 6.30972 18.2161 17.1306C9.29648 26.0412 1.8159 33.5677 1.5989 33.8537C0.92508 34.723 0.833714 35.2378 0.399726 41.0485C0.182732 43.9768 0 46.6305 0 46.9508C0 48.4035 0.902238 49.5588 2.29557 49.9248C2.8095 50.0621 3.51759 50.0278 8.15441 49.6846C14.1503 49.2385 14.7442 49.1699 15.5665 48.7581C16.0461 48.5179 19.2782 45.338 32.5263 32.0922C41.5372 23.0786 49.0407 15.5063 49.212 15.2547C50.217 13.7905 50.2627 11.8574 49.3376 10.3933C49.1549 10.1073 46.9392 7.81961 44.4038 5.2917C39.63 0.533269 39.4472 0.384566 38.2366 0.0986027C37.5857 -0.0500981 36.7177 -0.0272211 36.0781 0.144357ZM41.8913 8.13989C44.6437 10.8966 46.254 12.6009 46.254 12.7382C46.254 12.8754 45.169 14.0422 43.3988 15.8266L40.5436 18.6862L31.2928 9.421L34.1138 6.59569C36.318 4.38805 37.0032 3.75893 37.2316 3.75893C37.46 3.75893 38.4422 4.68545 41.8913 8.13989ZM33.2915 16.6845L37.8598 21.2599L31.1786 27.9629C27.5011 31.6461 22.042 37.0794 19.0498 40.0305L13.6021 45.4066L8.80539 45.7726C6.1672 45.9671 3.97442 46.0929 3.92873 46.0472C3.88305 46.0014 4.00868 43.7938 4.20283 41.14L4.5683 36.3015L8.07446 32.7556C15.8748 24.8859 28.609 12.1091 28.6661 12.1091C28.7003 12.1091 30.7789 14.168 33.2915 16.6845Z" fill="black"/>
</svg>
