<svg width="48" height="52" viewBox="0 0 48 52" fill="none" xmlns="http://www.w3.org/2000/svg">
<path d="M24.9082 1.20832C24.9669 1.23877 25.0256 1.26923 25.086 1.30061C25.1498 1.33208 25.2135 1.36356 25.2792 1.39599C25.4863 1.4986 25.6922 1.6033 25.8982 1.70801C26.0435 1.7804 26.1888 1.85263 26.3342 1.92469C26.6258 2.06934 26.9171 2.21466 27.2081 2.36052C27.7468 2.62992 28.2901 2.88955 28.834 3.14844C29.8495 3.63452 30.8626 4.12563 31.8754 4.61729C32.7487 5.04115 33.6226 5.46353 34.498 5.88282C35.5135 6.36915 36.5267 6.86 37.5395 7.35167C38.4128 7.77552 39.2867 8.1979 40.1621 8.61719C40.8302 8.93715 41.4976 9.25832 42.1641 9.58155C42.2319 9.61443 42.2996 9.64731 42.3695 9.68118C42.7151 9.84885 43.0606 10.0167 43.406 10.1847C44.049 10.4974 44.6927 10.808 45.3398 11.112C45.4523 11.1651 45.5649 11.2183 45.6808 11.273C45.8897 11.3714 46.0988 11.4691 46.3083 11.566C46.4468 11.6313 46.4468 11.6313 46.588 11.6979C46.6677 11.735 46.7474 11.7722 46.8296 11.8104C47.1049 11.9714 47.247 12.0652 47.4375 12.3281C47.498 12.6881 47.4901 13.0463 47.4871 13.4106C47.488 13.5781 47.488 13.5781 47.489 13.7491C47.4902 14.0592 47.4898 14.3693 47.4886 14.6795C47.4877 15.0139 47.489 15.3484 47.4901 15.6828C47.4919 16.338 47.4915 16.9932 47.4904 17.6484C47.4895 18.1808 47.4893 18.7132 47.4898 19.2456C47.4898 19.3213 47.4899 19.397 47.49 19.475C47.4901 19.6289 47.4902 19.7827 47.4903 19.9365C47.4914 21.3795 47.4902 22.8225 47.4881 24.2655C47.4863 25.5041 47.4866 26.7427 47.4884 27.9814C47.4905 29.4191 47.4913 30.8569 47.4901 32.2946C47.49 32.4479 47.4899 32.6012 47.4898 32.7544C47.4897 32.8675 47.4897 32.8675 47.4896 32.9829C47.4893 33.5148 47.4898 34.0467 47.4907 34.5786C47.4918 35.2266 47.4915 35.8746 47.4895 36.5226C47.4884 36.8534 47.488 37.1841 47.4893 37.5148C47.4904 37.8731 47.4891 38.2312 47.4871 38.5895C47.4884 38.7469 47.4884 38.7469 47.4897 38.9076C47.4823 39.6102 47.4823 39.6102 47.2524 39.9268C47.0384 40.0681 46.8298 40.193 46.5989 40.305C46.4661 40.3701 46.4661 40.3701 46.3307 40.4366C46.2351 40.4824 46.1394 40.5283 46.0409 40.5756C45.9406 40.6245 45.8403 40.6734 45.7369 40.7238C45.4151 40.8805 45.0927 41.0361 44.7703 41.1917C44.5605 41.2936 44.3507 41.3957 44.141 41.4978C43.0297 42.0382 41.9156 42.5727 40.8005 43.1052C40.0685 43.4547 39.3382 43.8075 38.6088 44.1621C37.5978 44.6536 36.5861 45.1434 35.5723 45.6289C34.6268 46.0817 33.6833 46.5383 32.7402 46.9961C31.7018 47.5002 30.6625 48.0022 29.6213 48.5006C29.0328 48.7827 28.4452 49.0665 27.8582 49.3517C27.7864 49.3865 27.7146 49.4214 27.6407 49.4573C27.2873 49.629 26.934 49.8008 26.5808 49.9729C26.3253 50.0973 26.0695 50.2209 25.8132 50.3438C25.5941 50.4495 25.3757 50.5567 25.1584 50.6663C25.0669 50.7111 24.9755 50.7559 24.8812 50.802C24.8043 50.8407 24.7275 50.8793 24.6483 50.9192C23.9787 51.1293 23.4763 50.9912 22.8712 50.678C22.7691 50.6276 22.7691 50.6276 22.6649 50.5761C22.4439 50.4665 22.2241 50.3549 22.0042 50.2432C21.8496 50.1661 21.695 50.0893 21.5403 50.0126C21.2318 49.8595 20.9237 49.7057 20.6157 49.5514C20.0665 49.2768 19.5129 49.0117 18.9585 48.7478C18.017 48.2973 17.0776 47.8425 16.1387 47.3867C15.1956 46.9289 14.2521 46.4724 13.3066 46.0195C12.2912 45.5332 11.278 45.0424 10.2652 44.5507C9.39194 44.1268 8.51803 43.7045 7.64258 43.2852C6.97453 42.9652 6.3071 42.644 5.64063 42.3208C5.53893 42.2715 5.53893 42.2715 5.43517 42.2212C5.08973 42.0536 4.74437 41.8858 4.39911 41.7178C3.75369 41.404 3.10749 41.0923 2.45803 40.7869C2.3446 40.7334 2.23118 40.6798 2.11432 40.6246C1.90293 40.525 1.69123 40.426 1.47917 40.3278C1.38627 40.2839 1.29337 40.2401 1.19765 40.1949C1.1169 40.1573 1.03615 40.1196 0.952961 40.0809C0.757815 39.9649 0.757815 39.9649 0.562502 39.6719C0.537795 39.4606 0.537796 39.4606 0.537379 39.2099C0.536749 39.1143 0.536119 39.0187 0.53547 38.9202C0.535773 38.8149 0.536075 38.7097 0.536387 38.6012C0.535944 38.4896 0.535501 38.3779 0.535046 38.2629C0.534021 37.9526 0.533877 37.6422 0.534107 37.3319C0.534147 36.9974 0.53307 36.6629 0.532143 36.3283C0.530519 35.6728 0.529984 35.0173 0.529875 34.3618C0.529782 33.8291 0.529381 33.2964 0.528762 32.7637C0.527041 31.2543 0.52614 29.7448 0.526287 28.2354C0.526294 28.154 0.526302 28.0726 0.526311 27.9887C0.526318 27.9072 0.526326 27.8257 0.526334 27.7417C0.526414 26.4203 0.524544 25.0989 0.521791 23.7774C0.518988 22.4214 0.517638 21.0654 0.517806 19.7093C0.517871 18.9477 0.51733 18.1861 0.515231 17.4244C0.513456 16.776 0.513027 16.1277 0.514355 15.4793C0.514995 15.1483 0.514998 14.8174 0.513309 14.4865C0.511812 14.128 0.512702 13.7697 0.514214 13.4112C0.513209 13.3062 0.512204 13.2011 0.511169 13.0929C0.517759 12.3897 0.51776 12.3897 0.747952 12.0729C0.956245 11.9354 1.15843 11.8129 1.38316 11.704C1.51008 11.6418 1.51008 11.6418 1.63957 11.5784C1.7309 11.5346 1.82224 11.4909 1.91634 11.4458C2.01234 11.399 2.10833 11.3523 2.20724 11.3041C2.51516 11.1544 2.82361 11.0058 3.13208 10.8572C3.33245 10.7599 3.53279 10.6626 3.73309 10.5652C4.81973 10.0374 5.90917 9.51556 6.99925 8.99498C7.7328 8.64455 8.46479 8.29102 9.1959 7.93553C10.2068 7.44403 11.2186 6.95429 12.2324 6.46876C13.1779 6.01595 14.1214 5.55935 15.0645 5.10157C16.103 4.59742 17.1425 4.09534 18.1838 3.59681C18.7699 3.31595 19.3551 3.03338 19.9396 2.74943C20.011 2.71479 20.0823 2.68016 20.1558 2.64447C20.5062 2.47427 20.8565 2.30393 21.2067 2.13335C21.4626 2.00878 21.7188 1.88502 21.9754 1.7619C22.2151 1.64684 22.4532 1.52912 22.6906 1.40923C22.7999 1.35551 22.9093 1.30179 23.0219 1.24644C23.1168 1.19877 23.2117 1.15111 23.3094 1.102C23.8927 0.903665 24.3585 0.94117 24.9082 1.20832ZM23.3981 2.83757C23.3188 2.87642 23.2395 2.91527 23.1578 2.9553C23.0725 2.99802 22.9873 3.04073 22.8995 3.08474C22.8103 3.12864 22.7211 3.17253 22.6292 3.21776C22.3432 3.35873 22.0577 3.50074 21.7722 3.64283C21.3994 3.82734 21.0264 4.01146 20.6534 4.19558C20.5634 4.2401 20.4734 4.28462 20.3807 4.33049C19.6391 4.69659 18.8924 5.04989 18.1406 5.39454C18.3572 5.63288 18.5652 5.7711 18.8532 5.91334C18.9375 5.95528 19.0219 5.99722 19.1087 6.04044C19.2001 6.0851 19.2916 6.12977 19.3857 6.17579C19.4819 6.22329 19.578 6.27078 19.6771 6.31972C20.4193 6.68522 21.1651 7.04332 21.9122 7.3988C22.7526 7.79875 23.5901 8.20451 24.4272 8.61109C25.3743 9.07094 26.3219 9.52963 27.2715 9.98438C28.2869 10.4707 29.3001 10.9616 30.3129 11.4532C31.2819 11.9235 32.2519 12.3914 33.2233 12.8565C33.8069 13.1362 34.3897 13.4176 34.9718 13.7003C35.0427 13.7347 35.1136 13.7691 35.1866 13.8045C35.534 13.9733 35.8813 14.1421 36.2286 14.3112C36.4845 14.4358 36.7409 14.5594 36.9975 14.6824C37.2607 14.8088 37.5212 14.9396 37.7809 15.0729C37.9111 15.138 38.0413 15.2031 38.1716 15.2681C38.2306 15.2995 38.2896 15.3308 38.3503 15.3631C38.6499 15.5102 38.8117 15.5575 39.1418 15.4881C39.2368 15.4443 39.3318 15.4006 39.4297 15.3555C39.5721 15.2916 39.5721 15.2916 39.7174 15.2264C39.8175 15.1776 39.9175 15.1288 40.0206 15.0785C40.1341 15.0234 40.2476 14.9683 40.3646 14.9115C40.4863 14.852 40.608 14.7925 40.7297 14.7329C40.9831 14.6095 41.2366 14.4862 41.49 14.3629C41.586 14.3161 41.5861 14.3161 41.684 14.2684C42.1173 14.0575 42.5519 13.8499 42.9877 13.6442C43.1 13.591 43.2123 13.5378 43.328 13.483C43.5418 13.3819 43.7558 13.2812 43.9701 13.181C44.0654 13.1357 44.1608 13.0904 44.2591 13.0438C44.3428 13.0044 44.4266 12.965 44.5129 12.9245C44.7185 12.8311 44.7185 12.8311 44.8008 12.6211C43.6469 12.0386 42.4895 11.4651 41.3223 10.9099C40.4819 10.5098 39.6443 10.1041 38.8071 9.69752C37.86 9.23766 36.9124 8.77898 35.9629 8.32423C34.9475 7.83789 33.9343 7.34704 32.9214 6.85538C31.9524 6.38501 30.9822 5.91706 30.0106 5.45185C29.2875 5.10527 28.5658 4.75576 27.8445 4.40539C27.363 4.17151 26.8813 3.93813 26.3995 3.70493C26.1185 3.5689 25.8376 3.43268 25.5569 3.29588C25.3211 3.18094 25.0848 3.06686 24.8484 2.95313C24.7849 2.92188 24.7214 2.89063 24.6559 2.85843C24.1838 2.63331 23.867 2.60505 23.3981 2.83757ZM15.7978 6.55039C15.7176 6.58949 15.6375 6.6286 15.5549 6.66889C15.4683 6.71161 15.3818 6.75433 15.2926 6.79835C15.1597 6.86337 15.1597 6.86337 15.0241 6.92972C14.7403 7.06867 14.4568 7.20816 14.1733 7.34766C13.9814 7.44179 13.7893 7.53589 13.5973 7.62995C13.1259 7.86097 12.6547 8.09243 12.1836 8.32423C12.4414 8.5957 12.6851 8.73541 13.0251 8.89681C13.1373 8.9505 13.2496 9.00419 13.3652 9.05951C13.4881 9.11756 13.611 9.17561 13.7339 9.23365C13.8616 9.29456 13.9894 9.35553 14.1171 9.41656C14.3825 9.54336 14.648 9.66987 14.9137 9.79617C15.5186 10.0841 16.1215 10.3762 16.7246 10.668C16.9606 10.782 17.1966 10.8959 17.4326 11.0098C17.5506 11.0667 17.6686 11.1237 17.7866 11.1807C17.845 11.2089 17.9034 11.2371 17.9636 11.2661C26.9907 15.624 26.9907 15.624 27.1677 15.7095C27.2858 15.7665 27.4039 15.8235 27.5221 15.8805C27.8152 16.022 28.1083 16.1635 28.4014 16.305C28.955 16.5723 29.5087 16.8396 30.0624 17.1067C30.3243 17.2331 30.5862 17.3595 30.8481 17.4858C30.9731 17.5462 31.0981 17.6065 31.2231 17.6668C31.3963 17.7503 31.5695 17.8339 31.7427 17.9174C31.8413 17.965 31.9398 18.0125 32.0414 18.0615C32.3008 18.1875 32.3008 18.1875 32.4883 18.3081C32.9285 18.4699 33.354 18.3071 33.7633 18.1232C33.9035 18.0551 34.0433 17.9859 34.1826 17.9159C34.257 17.8794 34.3314 17.8429 34.4081 17.8054C34.644 17.6895 34.8793 17.5723 35.1145 17.4551C35.2744 17.3763 35.4343 17.2976 35.5942 17.219C36.0596 16.9899 36.5243 16.7593 36.9883 16.5274C36.9883 16.4629 36.9883 16.3984 36.9883 16.332C36.3758 16.0317 35.7633 15.7315 35.1507 15.4314C34.9434 15.3299 34.7361 15.2283 34.5289 15.1266C33.2446 14.4968 31.9577 13.8733 30.6667 13.2575C30.0249 12.9512 29.385 12.641 28.7455 12.3301C27.7346 11.8386 26.7228 11.3488 25.709 10.8633C24.7635 10.4105 23.82 9.95387 22.877 9.4961C21.7246 8.93679 20.5713 8.37976 19.4159 7.82679C18.9893 7.62254 18.5635 7.41678 18.138 7.21033C18.0251 7.15573 17.9122 7.10113 17.796 7.04487C17.5784 6.93957 17.3609 6.83398 17.1437 6.72806C17.0468 6.68126 16.9499 6.63447 16.8501 6.58625C16.7644 6.54461 16.6787 6.50298 16.5904 6.46008C16.2566 6.31699 16.1113 6.3965 15.7978 6.55039ZM9.04334 9.74482C8.94776 9.79226 8.85217 9.83971 8.75369 9.88859C8.44758 10.041 8.14273 10.1957 7.83789 10.3506C7.63898 10.4503 7.43998 10.5499 7.24089 10.6493C6.94304 10.798 6.64526 10.9469 6.34782 11.0965C5.3056 11.62 4.25336 12.1221 3.19922 12.6211C3.40688 12.8477 3.59927 12.9848 3.87528 13.1185C3.95217 13.1561 4.02905 13.1938 4.10827 13.2325C4.23308 13.2924 4.23308 13.2924 4.36041 13.3535C4.44711 13.3957 4.5338 13.4379 4.62313 13.4814C4.90505 13.6184 5.18738 13.7545 5.46973 13.8906C5.66416 13.9849 5.85856 14.0792 6.05295 14.1736C7.0756 14.6695 8.09937 15.1632 9.12569 15.6515C9.93136 16.0349 10.734 16.4245 11.5366 16.8142C12.4837 17.274 13.4314 17.7326 14.3809 18.1875C14.5735 18.2801 14.7661 18.3726 14.9588 18.4652C15.3827 18.6688 15.8071 18.8713 16.2319 19.0732C16.5287 19.2144 16.8251 19.3564 17.1215 19.4985C17.2666 19.5679 17.4119 19.637 17.5574 19.7059C17.7609 19.8022 17.964 19.8996 18.1669 19.9972C18.2277 20.0256 18.2884 20.0541 18.3509 20.0834C18.7 20.2528 18.9682 20.4248 19.2148 20.7266C19.2746 21.0851 19.2624 21.243 19.0562 21.5444C18.7469 21.7561 18.6118 21.7429 18.2383 21.7031C17.9275 21.5894 17.6363 21.4419 17.3414 21.2923C17.2552 21.2497 17.1689 21.2071 17.08 21.1632C16.8003 21.0248 16.5214 20.8848 16.2424 20.7449C16.0494 20.6491 15.8564 20.5535 15.6632 20.4579C15.2866 20.2716 14.9102 20.0848 14.534 19.8976C13.977 19.621 13.4171 19.3509 12.855 19.0847C11.9657 18.662 11.0796 18.2331 10.1939 17.803C9.15161 17.297 8.10858 16.7927 7.06339 16.2928C6.47086 16.009 5.87968 15.7226 5.28929 15.4344C5.14281 15.363 4.99633 15.2916 4.84984 15.2202C4.63398 15.115 4.41818 15.0097 4.20258 14.904C4.00243 14.8058 3.80207 14.7081 3.60167 14.6105C3.4286 14.5258 3.4286 14.5258 3.25203 14.4394C2.88402 14.2711 2.50389 14.1304 2.125 13.9883C2.125 22.2061 2.125 30.4238 2.125 38.8906C2.93067 39.2774 3.73633 39.6641 4.56641 40.0625C5.0404 40.2919 5.51437 40.5213 5.98798 40.7515C6.99406 41.2405 8.00091 41.7278 9.00977 42.2109C10.0252 42.6973 11.0384 43.1881 12.0512 43.6798C12.9245 44.1036 13.7984 44.526 14.6738 44.9453C15.6193 45.3981 16.5628 45.8548 17.5059 46.3125C18.855 46.9673 20.2051 47.62 21.5586 48.2656C21.6385 48.3038 21.7184 48.342 21.8007 48.3814C22.0107 48.4816 22.221 48.5813 22.4314 48.6807C22.5431 48.7335 22.6547 48.7864 22.7698 48.8409C23.0074 48.962 23.0074 48.962 23.2188 48.9492C23.2188 40.7637 23.2188 32.5781 23.2188 24.1445C22.7031 23.8867 22.1875 23.6289 21.6563 23.3633C21.0703 22.9727 21.0703 22.9727 20.9727 22.875C20.9276 22.2665 20.9276 22.2665 21.0825 22.0083C21.3598 21.8419 21.5221 21.8113 21.8516 21.8008C22.3045 21.9719 22.7249 22.2132 23.1505 22.4426C23.2825 22.5103 23.2825 22.5103 23.4171 22.5794C23.4962 22.6219 23.5754 22.6645 23.6569 22.7083C24.2346 22.8708 24.8849 22.3997 25.3973 22.146C25.4837 22.1036 25.5702 22.0613 25.6592 22.0176C25.9344 21.8826 26.2093 21.7471 26.4841 21.6116C26.7587 21.4765 27.0333 21.3414 27.308 21.2066C27.4785 21.1229 27.649 21.039 27.8193 20.9549C29.2426 20.2552 29.2426 20.2552 29.7617 20.3359C29.9937 20.4946 29.9937 20.4946 30.1523 20.7266C30.2012 21.0195 30.2012 21.0195 30.1523 21.3125C29.8226 21.7393 29.3574 21.9256 28.882 22.1514C28.796 22.193 28.71 22.2346 28.6214 22.2775C28.3468 22.4103 28.0716 22.542 27.7964 22.6736C27.6135 22.7617 27.4306 22.8499 27.2478 22.9381C26.9883 23.0634 26.7288 23.1886 26.4689 23.3132C25.9031 23.5845 25.3427 23.8638 24.7813 24.1445C24.7813 32.3301 24.7813 40.5156 24.7813 48.9492C25.5267 48.7032 25.5267 48.7032 26.2224 48.3877C26.3225 48.3369 26.4226 48.2862 26.5257 48.2339C26.6834 48.1529 26.6834 48.1529 26.8442 48.0703C27.0722 47.9548 27.3001 47.8395 27.5282 47.7243C27.6417 47.667 27.7551 47.6097 27.872 47.5506C28.3383 47.3171 28.8083 47.0916 29.2795 46.8679C30.2034 46.4289 31.1244 45.9842 32.0444 45.5374C32.9915 45.0775 33.9391 44.6188 34.8887 44.1641C35.8341 43.7113 36.7777 43.2547 37.7207 42.7969C38.759 42.2929 39.7982 41.7909 40.8392 41.2926C41.4302 41.0094 42.0202 40.7243 42.6096 40.4379C42.6819 40.4028 42.7541 40.3677 42.8285 40.3315C43.1849 40.1584 43.5411 39.9851 43.8973 39.8115C44.0286 39.7477 44.1598 39.6838 44.2911 39.62C44.4634 39.5361 44.4634 39.5361 44.6392 39.4504C45.0479 39.2567 45.4618 39.0743 45.875 38.8906C45.875 30.6729 45.875 22.4551 45.875 13.9883C44.9632 14.3872 44.0629 14.7822 43.173 15.2231C43.0745 15.2715 42.976 15.32 42.8745 15.3698C42.5664 15.5214 42.2584 15.6734 41.9504 15.8254C41.6386 15.9792 41.3268 16.1328 41.0148 16.2863C40.8224 16.381 40.63 16.4758 40.4377 16.5709C40.3509 16.6137 40.2641 16.6564 40.1746 16.7005C40.0989 16.7379 40.0231 16.7753 39.9451 16.8138C39.7115 16.9232 39.4747 17.0197 39.2344 17.1133C39.234 17.2274 39.2337 17.3416 39.2333 17.4592C39.2297 18.534 39.2241 19.6089 39.2164 20.6837C39.2126 21.2363 39.2094 21.7889 39.2079 22.3415C39.2064 22.8747 39.2031 23.4078 39.1984 23.941C39.197 24.1445 39.1962 24.3481 39.1961 24.5516C39.1959 24.8365 39.1932 25.1212 39.19 25.406C39.1905 25.4904 39.191 25.5748 39.1915 25.6618C39.1815 26.2341 39.1815 26.2341 38.952 26.5356C38.732 26.6938 38.5192 26.8154 38.2735 26.93C38.179 26.9747 38.0846 27.0193 37.9873 27.0653C37.8852 27.1126 37.7831 27.1598 37.678 27.2085C37.4587 27.3115 37.2395 27.4147 37.0203 27.5179C36.9046 27.5722 36.7888 27.6265 36.6696 27.6824C36.2891 27.862 35.9115 28.047 35.5341 28.2327C35.4059 28.2956 35.2778 28.3584 35.1496 28.4212C34.9622 28.5131 34.7749 28.6051 34.588 28.6979C34.4135 28.7843 34.2386 28.8698 34.0636 28.9553C33.9635 29.0046 33.8635 29.0539 33.7604 29.1047C33.463 29.2266 33.2067 29.2921 32.8867 29.3203C32.4409 29.1123 32.4409 29.1123 32.3008 28.832C32.2888 28.549 32.2826 28.2682 32.2807 27.9851C32.2798 27.8975 32.2788 27.8098 32.2778 27.7195C32.2747 27.4289 32.2723 27.1383 32.2699 26.8476C32.2679 26.6465 32.2658 26.4453 32.2637 26.2442C32.2583 25.7141 32.2535 25.1839 32.2488 24.6538C32.2439 24.1131 32.2385 23.5725 32.2331 23.0318C32.2226 21.9704 32.2127 20.909 32.2031 19.8477C31.9056 19.6905 31.608 19.5335 31.3103 19.3766C31.2265 19.3323 31.1427 19.2881 31.0564 19.2424C30.4801 18.9387 29.9001 18.6466 29.3101 18.3706C29.1203 18.2808 28.9306 18.1909 28.7409 18.1009C28.6396 18.0529 28.5384 18.0049 28.434 17.9554C27.7885 17.6476 27.1457 17.3343 26.5024 17.0217C25.5554 16.5618 24.6078 16.1032 23.6582 15.6484C22.7128 15.1956 21.7692 14.739 20.8262 14.2813C19.8749 13.8195 18.9232 13.3589 17.9697 12.9019C17.1736 12.5203 16.3779 12.1379 15.5829 11.7542C15.4071 11.6693 15.2312 11.5847 15.0553 11.5C14.4661 11.2162 13.878 10.9303 13.2918 10.6403C12.9983 10.4951 12.7044 10.3506 12.4105 10.2062C12.2687 10.1363 12.1271 10.066 11.9856 9.99538C11.7878 9.89662 11.5894 9.79906 11.3909 9.70171C11.2208 9.61734 11.2208 9.61734 11.0472 9.53127C10.2234 9.19817 9.79845 9.35588 9.04334 9.74482ZM36.7697 18.3271C36.6996 18.3613 36.6295 18.3956 36.5573 18.4308C36.3325 18.5406 36.108 18.6509 35.8835 18.7612C35.6601 18.8708 35.4366 18.9803 35.2129 19.0896C35.0737 19.1576 34.9346 19.2259 34.7956 19.2943C34.4554 19.4609 34.1179 19.6091 33.7656 19.75C33.7656 22.2637 33.7656 24.7774 33.7656 27.3672C35.0684 26.7501 36.3704 26.1315 37.6719 25.5117C37.6719 23.0303 37.6719 20.5488 37.6719 17.9922C37.3414 17.9922 37.0613 18.1831 36.7697 18.3271Z" fill="#8A8A8A"/>
<path d="M4.85938 30.8828C5.23089 31.033 5.58739 31.2105 5.9458 31.3894C6.16311 31.4959 6.38042 31.6023 6.59773 31.7087C6.71174 31.7649 6.82574 31.8211 6.9432 31.8791C7.31099 32.0602 7.68014 32.2383 8.04961 32.4159C8.11198 32.4459 8.17435 32.4759 8.2386 32.5068C8.36342 32.5669 8.48824 32.6269 8.61306 32.6869C9.01278 32.8791 9.41235 33.0715 9.81109 33.2658C10.0289 33.3714 10.2473 33.4757 10.4664 33.5788C10.5712 33.629 10.676 33.6792 10.784 33.7309C10.8773 33.7749 10.9706 33.8189 11.0667 33.8642C11.3207 34.0175 11.4473 34.1444 11.5977 34.3984C11.6378 34.7198 11.6293 34.9155 11.4939 35.2102C11.2231 35.4461 10.9709 35.4929 10.6211 35.4727C10.2651 35.3559 9.94019 35.1866 9.60791 35.0149C9.40703 34.9149 9.20612 34.815 9.00519 34.7151C8.90152 34.6628 8.79786 34.6105 8.69105 34.5567C8.17797 34.2998 7.65985 34.0536 7.14209 33.8064C6.93927 33.7088 6.73646 33.6111 6.53365 33.5134C6.13383 33.3215 5.73279 33.1325 5.33049 32.9458C5.23559 32.9015 5.14069 32.8572 5.04291 32.8116C4.86391 32.7281 4.6846 32.6454 4.50494 32.5634C4.42565 32.5263 4.34636 32.4892 4.26467 32.451C4.19531 32.4191 4.12596 32.3872 4.0545 32.3543C3.88281 32.25 3.88281 32.25 3.6875 31.957C3.65477 31.6624 3.63287 31.4592 3.6875 31.1758C4.03904 30.739 4.35197 30.7427 4.85938 30.8828Z" fill="#8A8A8A"/>
<path d="M4.76172 34.3008C5.04135 34.3915 5.29946 34.5161 5.56243 34.6468C5.6364 34.6825 5.71037 34.7182 5.78658 34.7549C5.94209 34.8304 6.09728 34.9065 6.25215 34.9833C6.48846 35.1001 6.72597 35.2141 6.96375 35.3279C7.11521 35.4018 7.2666 35.4759 7.41789 35.5501C7.4885 35.5839 7.5591 35.6177 7.63184 35.6525C8.04153 35.858 8.32359 36.0473 8.57031 36.4492C8.57031 36.8183 8.554 37.0358 8.31397 37.322C7.94738 37.486 7.59145 37.4893 7.20757 37.3629C6.9994 37.2727 6.79697 37.1749 6.5943 37.0729C6.5201 37.0368 6.44589 37.0006 6.36944 36.9634C6.21353 36.8871 6.05794 36.8101 5.90265 36.7326C5.66509 36.614 5.42658 36.4976 5.18782 36.3815C5.03606 36.3069 4.88436 36.2322 4.73273 36.1574C4.66162 36.1226 4.59051 36.0878 4.51725 36.0519C3.90821 35.7464 3.90821 35.7464 3.6875 35.4727C3.6138 34.8093 3.6138 34.8093 3.84009 34.4473C4.17089 34.2437 4.37534 34.2692 4.76172 34.3008Z" fill="#8A8A8A"/>
</svg>
