<svg width="50" height="50" viewBox="0 0 50 50" fill="none" xmlns="http://www.w3.org/2000/svg">
<path d="M25.957 2.64648C22.6953 2.83203 20.8789 3.44727 19.4922 4.83398C18.3594 5.95703 17.8223 7.08008 17.4609 9.08203C17.2168 10.4199 17.0898 14.7754 17.2852 15.2344C17.5586 15.8984 18.4082 16.3184 19.1504 16.1621C19.5117 16.084 20.0977 15.5859 20.2344 15.2441C20.293 15.1074 20.3711 13.9746 20.4199 12.7441C20.5078 10.0098 20.6738 9.00391 21.1719 8.00781C21.6309 7.08008 22.1875 6.64062 23.291 6.29883C24.5898 5.89844 25.3809 5.84961 30.9668 5.79102C38.3594 5.72266 40.5566 5.86914 41.9531 6.55273C43.4277 7.25586 43.9453 8.48633 44.1406 11.7383C44.2676 13.8281 44.2676 36.1719 44.1406 38.2617C43.9453 41.5137 43.4277 42.7441 41.9531 43.4473C40.5566 44.1309 38.3496 44.2773 30.957 44.209C25.3906 44.1504 24.5801 44.1016 23.291 43.7012C22.1875 43.3594 21.6309 42.9199 21.1719 41.9922C20.6738 40.9961 20.5078 39.9902 20.4199 37.2559C20.3711 36.0156 20.293 34.8926 20.2344 34.7559C20.0977 34.4141 19.5117 33.916 19.1504 33.8379C18.4082 33.6816 17.5586 34.1016 17.2852 34.7656C17.0898 35.2246 17.2168 39.5801 17.4609 40.918C17.8223 42.8906 18.3594 44.0332 19.4336 45.1172C20.9277 46.6016 22.627 47.1582 26.2793 47.3633C28.5449 47.4902 36.1133 47.4902 38.3789 47.3633C41.9141 47.1582 43.6914 46.5723 45.1172 45.127C46.6016 43.6328 47.1582 41.9727 47.3633 38.418C47.4902 36.2695 47.4902 13.7305 47.3633 11.582C47.1582 8.02734 46.6016 6.35742 45.1172 4.88281C43.6328 3.38867 41.9629 2.83203 38.3594 2.63672C36.3965 2.5293 27.9102 2.5293 25.957 2.64648Z" fill="white"/>
<path d="M10.5469 17.4219C9.94141 17.8418 2.99805 23.8672 2.79297 24.1504C2.50977 24.541 2.50977 25.459 2.79297 25.8496C2.99805 26.1328 9.94141 32.1582 10.5469 32.5781C11.0059 32.9004 11.8457 32.9102 12.3047 32.5879C12.8613 32.2168 13.0371 31.8945 13.0371 31.25C13.0273 30.8203 12.9785 30.5957 12.832 30.4004C12.7246 30.2441 11.7188 29.3359 10.5957 28.3691L8.55469 26.6113L20.2246 26.5625C31.2598 26.5137 31.9043 26.5039 32.1582 26.3379C33.0469 25.7617 33.0469 24.2383 32.1582 23.6621C31.9043 23.4961 31.2598 23.4863 20.2246 23.4375L8.55469 23.3887L10.5957 21.6309C11.7188 20.6641 12.7246 19.7559 12.832 19.5996C12.9785 19.4043 13.0273 19.1797 13.0371 18.75C13.0371 18.1055 12.8613 17.7832 12.3047 17.4023C11.8457 17.0898 11.0059 17.0996 10.5469 17.4219Z" fill="white"/>
</svg>