<?xml version="1.0" standalone="no"?>
<!DOCTYPE svg PUBLIC "-//W3C//DTD SVG 20010904//EN"
 "http://www.w3.org/TR/2001/REC-SVG-20010904/DTD/svg10.dtd">
<svg version="1.0" xmlns="http://www.w3.org/2000/svg"
 width="512.000000pt" height="512.000000pt" viewBox="0 0 512.000000 512.000000"
 preserveAspectRatio="xMidYMid meet">

<g transform="translate(0.000000,512.000000) scale(0.100000,-0.100000)"
fill="#000000" stroke="none">
<path d="M1356 5099 l-26 -20 0 -160 c0 -130 -6 -202 -35 -392 -96 -651 -565
-4212 -565 -4295 0 -11 10 -32 22 -47 22 -24 48 -30 502 -106 523 -89 515 -88
540 -26 7 17 181 690 387 1494 206 805 376 1463 379 1463 3 0 173 -658 379
-1463 205 -804 380 -1477 387 -1494 25 -63 18 -63 526 22 255 43 473 82 485
86 12 5 30 20 39 34 17 25 17 34 1 158 -286 2234 -484 3734 -557 4202 -15 96
-20 180 -20 323 0 191 0 193 -25 217 l-24 25 -1184 0 c-1183 0 -1184 0 -1211
-21z m2284 -214 l0 -75 -1075 0 -1075 0 0 75 0 75 1075 0 1075 0 0 -75z m59
-615 c29 -203 51 -374 49 -380 -3 -10 -195 116 -215 142 -5 7 -26 125 -47 263
-31 211 -40 253 -58 272 -23 25 -66 30 -99 12 -41 -21 -41 -47 1 -332 23 -150
45 -282 50 -293 5 -12 94 -81 199 -154 105 -73 195 -138 200 -144 4 -6 29
-171 55 -366 197 -1479 389 -2981 382 -2987 -10 -10 -751 -132 -757 -125 -3 4
-185 707 -404 1562 -219 855 -407 1583 -417 1617 -19 65 -37 83 -81 83 -46 0
-62 -35 -121 -265 -144 -569 -773 -2995 -777 -2999 -5 -4 -749 121 -756 128
-7 6 218 1765 378 2957 l53 395 194 134 c106 74 198 140 204 147 15 18 99 570
92 600 -14 53 -93 71 -132 30 -18 -19 -27 -61 -58 -272 -21 -138 -42 -256 -47
-263 -20 -26 -212 -152 -215 -142 -2 6 20 177 49 380 l52 370 1087 0 1087 0
52 -370z"/>
</g>
</svg>
