<svg width="48" height="25" viewBox="0 0 48 25" fill="none" xmlns="http://www.w3.org/2000/svg">
<path d="M13.982 0.615226C13.8569 0.635199 13.6381 0.804971 13.5131 0.974742C13.3777 1.1545 10.2833 6.28759 6.63674 12.3894C1.62532 20.7681 0 23.5643 0 23.804C0 24.2534 0.145862 24.4731 0.531356 24.6029C0.770987 24.6828 7.65778 24.7128 25.0258 24.7128C51.3332 24.7128 49.812 24.7427 49.9683 24.1735C49.9996 24.0237 50.01 23.784 49.9892 23.6342C49.9371 23.3346 36.674 1.11455 36.351 0.794984C36.1531 0.595253 36.0072 0.595253 25.1821 0.585266C19.1601 0.57528 14.1174 0.595253 13.982 0.615226ZM34.1735 2.30295C34.1735 2.3429 31.3917 7.0166 28.0056 12.689L21.8273 23.0151H12.1066C6.75135 23.0151 2.39631 22.9751 2.41715 22.9352C2.45882 22.8353 14.4404 2.78231 14.6488 2.46274L14.7946 2.24303H24.4841C29.8185 2.24303 34.1735 2.27299 34.1735 2.30295ZM41.7688 13.1683C44.9777 18.5411 47.6137 22.9651 47.6137 22.9851C47.6137 23.0051 47.0927 23.0051 46.4468 22.9951L45.2903 22.9651L40.9874 15.7748C38.6119 11.8201 36.5698 8.45467 36.4344 8.2849C36.1114 7.90541 35.5384 7.87545 35.1737 8.23496C35.0278 8.37477 32.9649 11.7502 30.579 15.7448L26.2344 23.0151H25.0988C24.4736 23.0151 23.9631 22.9851 23.9631 22.9551C23.9631 22.9052 35.257 3.98069 35.6009 3.45141C35.6842 3.32158 35.7884 3.26166 35.8405 3.30161C35.8822 3.35154 38.5494 7.79555 41.7688 13.1683ZM34.8716 22.9851C34.8507 23.0051 33.3713 23.0051 31.5792 22.9951L28.339 22.9651L31.5896 17.5225L34.8507 12.0798L34.882 17.5125C34.8924 20.4984 34.8924 22.9651 34.8716 22.9851ZM39.7996 17.2728C41.477 20.069 42.9357 22.5157 43.0503 22.6855L43.2586 23.0151H39.9663H36.674V17.5524C36.674 14.5564 36.6948 12.1197 36.7157 12.1397C36.7365 12.1597 38.1222 14.4666 39.7996 17.2728Z" fill="#FFFFFF"/>
</svg>