<svg width="41" height="51" viewBox="0 0 41 51" fill="none" xmlns="http://www.w3.org/2000/svg">
<path d="M1.59333 1.50287C0.825655 2.40575 0.537775 9.62881 0.729695 25.2788L1.01757 47.7505L3.60849 49.0546C5.7196 50.0578 6.77516 50.0578 10.0378 48.6534C13.2045 47.3492 14.5479 47.2489 17.3307 48.2521C19.9216 49.155 21.457 49.155 24.1439 48.2521C27.0227 47.2489 28.1742 47.3492 31.4368 48.854C34.8914 50.4591 35.5631 50.4591 37.8661 49.155L40.3611 47.6502L40.649 25.8807C40.7449 11.9362 40.553 3.30864 39.8813 2.10479C38.9217 0.19871 37.7702 0.0983901 20.7853 0.0983901C6.58324 0.0983901 2.45697 0.399351 1.59333 1.50287ZM37.4823 7.1208V10.632H20.6893H3.89637L3.60849 8.32465C2.84081 3.108 3.03273 3.00768 20.8812 3.30864L37.4823 3.6096V7.1208ZM37.9621 29.0909C37.9621 37.3172 37.6742 44.7409 37.3863 45.6438C36.7146 47.4495 33.6439 47.7505 32.6843 46.1454C31.3409 43.9383 27.4065 43.2361 24.0479 44.6406C21.1691 45.9447 20.3055 45.9447 16.9469 44.5402C13.3964 43.0354 13.0125 43.1358 10.3257 45.1422C6.87112 47.6502 4.76 47.8508 3.99233 45.6438C3.70445 44.7409 3.41657 37.3172 3.41657 29.0909V14.1432H20.6893H37.9621V29.0909Z" fill="black"/>
<path d="M12.053 23.6736C12.053 24.4762 12.7247 25.1784 13.4924 25.1784C14.2601 25.1784 14.9318 24.4762 14.9318 23.6736C14.9318 22.871 14.2601 22.1688 13.4924 22.1688C12.7247 22.1688 12.053 22.871 12.053 23.6736Z" fill="black"/>
<path d="M18.2904 23.172C18.0025 23.6736 18.2904 24.4762 19.0581 24.7771C21.2652 25.68 29.8056 24.7771 29.6137 23.6736C29.2298 22.2691 19.0581 21.7675 18.2904 23.172Z" fill="black"/>
<path d="M11.7651 33.806C10.9015 34.8092 11.957 36.2137 13.5884 36.2137C14.356 36.2137 14.9318 35.5114 14.9318 34.7089C14.9318 33.204 12.9166 32.6021 11.7651 33.806Z" fill="black"/>
<path d="M18.2904 34.2072C18.0025 34.7088 18.2904 35.5114 19.0581 35.8123C21.2652 36.7152 29.8056 35.8123 29.6137 34.7088C29.2298 33.3043 19.0581 32.8027 18.2904 34.2072Z" fill="black"/>
</svg>
