<svg width="50" height="50" viewBox="0 0 50 50" fill="none" xmlns="http://www.w3.org/2000/svg">
<path fill-rule="evenodd" clip-rule="evenodd" d="M19.0565 0.0316673C17.7215 0.188026 16.4297 0.423639 15.3718 0.703618C9.69895 2.20525 4.85262 6.05636 2.21183 11.1612C-1.81701 18.9492 -0.244913 28.2688 6.13614 34.4254C10.4718 38.6084 16.243 40.701 22.382 40.3159C25.7031 40.1075 29.14 39.0374 32.004 37.3197C32.468 37.0414 32.8847 36.8137 32.93 36.8137C32.9753 36.8137 35.7179 39.5274 39.0246 42.844C42.3314 46.1608 45.1917 49.0242 45.3811 49.2073C46.6761 50.4602 48.7854 50.1922 49.7216 48.6556C49.9663 48.2539 50 48.098 50 47.3679C50 46.6378 49.9668 46.4841 49.7252 46.0975C49.5741 45.8557 46.6455 42.8471 43.2172 39.4119L36.9841 33.166L37.2378 32.8644C37.9723 31.9911 39.2209 30.0652 39.7895 28.9284C41.1286 26.2517 41.7381 23.8204 41.8205 20.8281C41.8777 18.745 41.77 17.527 41.3774 15.8179C40.0101 9.86584 35.9224 4.82406 30.2488 2.09198C28.3096 1.15813 26.4384 0.574525 24.2222 0.212261C23.2981 0.06118 19.8372 -0.0598024 19.0565 0.0316673ZM19.5123 5.31414C17.3895 5.56578 15.6322 6.06857 13.8973 6.92073C9.62937 9.0172 6.6127 12.9266 5.7239 17.5132C5.46592 18.8445 5.46571 21.6306 5.72349 22.8845C6.35654 25.963 7.72748 28.4367 10.0351 30.6642C12.286 32.837 14.6865 34.1125 17.7707 34.7744C19.2454 35.0911 21.8889 35.1351 23.5001 34.8701C30.7749 33.6733 36.1072 27.7887 36.3502 20.6893C36.4961 16.4254 34.9469 12.6437 31.8254 9.64479C29.3205 7.23823 26.3903 5.83677 22.9359 5.3932C21.9336 5.2644 20.2579 5.2258 19.5123 5.31414Z" fill="black"/>
</svg>