<svg width="51" height="51" viewBox="0 0 51 51" fill="none" xmlns="http://www.w3.org/2000/svg">
<path opacity="0.942" fill-rule="evenodd" clip-rule="evenodd" d="M18.3578 0.488826C27.3017 0.390363 33.6435 4.37568 37.3832 12.4446C39.9262 19.5349 38.8959 26.0396 34.2925 31.9585C39.5105 37.2474 44.7534 42.5153 50.0211 47.7621C50.6818 48.587 50.6589 49.3886 49.9524 50.167C49.1897 50.6354 48.4571 50.5897 47.7545 50.0295C42.5098 44.7598 37.2439 39.5148 31.9572 34.2947C26.0423 38.8997 19.5403 39.9304 12.451 37.3867C4.87571 33.9263 0.892089 28.0171 0.5 19.6592C0.737701 12.4922 3.85136 6.99536 9.841 3.16856C12.4973 1.63495 15.3363 0.74171 18.3578 0.488826ZM19.4567 3.51212C26.4738 3.86943 31.4877 7.21331 34.4985 13.5439C37.0313 21.0233 35.3142 27.3218 29.3472 32.4395C23.5536 36.3801 17.5552 36.7007 11.352 33.4015C4.39698 28.5151 2.17616 21.9876 4.68972 13.8188C6.33277 9.74724 9.14881 6.79266 13.1378 4.95505C15.1775 4.09397 17.2839 3.613 19.4567 3.51212Z" fill="black"/>
</svg>
