<svg width="50" height="50" viewBox="0 0 50 50" fill="none" xmlns="http://www.w3.org/2000/svg">
<path d="M21.5527 0.146484C20.6934 0.46875 19.8633 1.34766 19.6387 2.16797C19.5508 2.50977 19.043 6.2207 19.043 6.5332C19.043 6.58203 18.8086 6.69922 18.5352 6.79688C18.252 6.88477 17.627 7.12891 17.1484 7.33398C16.6699 7.54883 16.25 7.71484 16.2109 7.71484C16.1816 7.71484 15.3809 7.11914 14.4434 6.39648C12.9883 5.25391 12.6465 5.03906 12.0801 4.86328C11.2988 4.62891 10.6152 4.66797 9.87305 4.99023C9.22852 5.26367 5.27344 9.21875 4.99023 9.87305C4.66797 10.5957 4.62891 11.2988 4.86328 12.0801C5.03906 12.6465 5.25391 12.9883 6.39648 14.4434C7.11914 15.3809 7.71484 16.1816 7.71484 16.2109C7.71484 16.25 7.54883 16.6699 7.33398 17.1484C7.12891 17.627 6.88477 18.252 6.79688 18.5254C6.69922 18.8086 6.57227 19.043 6.51367 19.043C6.44531 19.0527 5.44922 19.1699 4.28711 19.3262C1.94336 19.6289 1.57227 19.7461 0.888672 20.4297C0.664062 20.6543 0.390625 21.0449 0.263672 21.2891C0.0585938 21.7188 0.0488281 21.8066 0.0488281 25C0.0488281 28.2227 0.0488281 28.2812 0.273438 28.7305C0.400391 28.9844 0.673828 29.3652 0.888672 29.5801C1.55273 30.2441 1.94336 30.3711 4.28711 30.6738C5.44922 30.8301 6.44531 30.957 6.51367 30.957C6.57227 30.957 6.69922 31.1914 6.79688 31.4648C6.88477 31.748 7.12891 32.373 7.33398 32.8516C7.54883 33.3301 7.71484 33.75 7.71484 33.7891C7.71484 33.8281 7.11914 34.6191 6.39648 35.5566C4.92188 37.4512 4.73633 37.8418 4.74609 38.916C4.75586 40.0879 4.90234 40.3027 7.30469 42.7051C9.70703 45.0977 9.93164 45.2441 11.084 45.2539C12.168 45.2637 12.5488 45.0781 14.4531 43.6035C15.3906 42.8809 16.1816 42.2852 16.2109 42.2852C16.25 42.2852 16.6699 42.4512 17.1484 42.666C17.627 42.8711 18.252 43.1152 18.5352 43.2031C18.8086 43.3008 19.043 43.4277 19.043 43.4863C19.043 43.5547 19.1699 44.5508 19.3262 45.7129C19.6289 48.0664 19.7559 48.4375 20.4297 49.1113C20.6543 49.3359 21.0449 49.6094 21.2891 49.7363C21.7188 49.9414 21.8066 49.9512 25 49.9512C28.1934 49.9512 28.2812 49.9414 28.7109 49.7363C29.2871 49.4531 29.9219 48.8184 30.1855 48.2715C30.3418 47.959 30.4785 47.2461 30.6738 45.7715C30.8301 44.6289 30.9473 43.623 30.957 43.5352C30.957 43.4277 31.123 43.3203 31.4746 43.2031C31.748 43.1152 32.373 42.8711 32.8516 42.666C33.3301 42.4512 33.75 42.2852 33.7891 42.2852C33.8281 42.2852 34.6191 42.8809 35.5566 43.6035C37.4609 45.0781 37.8418 45.2637 38.916 45.2539C40.0781 45.2441 40.3027 45.0879 42.6562 42.7441C45.1074 40.3027 45.2637 40.0684 45.2637 38.8184C45.2539 37.7637 45.1172 37.4902 43.6133 35.5566C42.9297 34.6777 42.3438 33.9062 42.3242 33.8477C42.3047 33.7891 42.4512 33.3398 42.6562 32.8613C42.8711 32.373 43.1152 31.748 43.2031 31.4648C43.3008 31.1914 43.4082 30.957 43.457 30.957C43.7305 30.957 47.4805 30.4395 47.8027 30.3613C48.3301 30.2246 49.0039 29.7559 49.3945 29.248C49.9902 28.4668 50.0098 28.3008 49.9805 24.8438C49.9512 21.8164 49.9414 21.7188 49.7266 21.2695C49.5996 21.0156 49.3262 20.6348 49.1113 20.4199C48.4375 19.7461 48.0566 19.6289 45.6152 19.3066C44.4043 19.1504 43.4082 19.0137 43.3984 19.0039C43.2031 18.5352 42.3535 16.416 42.3242 16.3086C42.2949 16.2207 42.8223 15.4492 43.6035 14.4531C44.7461 12.9883 44.9609 12.6465 45.1367 12.0801C45.3711 11.2988 45.332 10.5957 45.0098 9.87305C44.7266 9.21875 40.7715 5.26367 40.127 4.99023C39.3848 4.66797 38.7012 4.62891 37.9199 4.86328C37.3535 5.03906 37.0117 5.25391 35.5566 6.39648C34.6191 7.11914 33.8184 7.71484 33.7891 7.71484C33.75 7.71484 33.3301 7.54883 32.8516 7.33398C32.373 7.12891 31.748 6.88477 31.4746 6.79688C31.1914 6.69922 30.957 6.57227 30.957 6.51367C30.957 6.44531 30.8301 5.44922 30.6738 4.28711C30.3711 1.93359 30.2441 1.5625 29.5703 0.888672C29.3457 0.664062 28.9551 0.390625 28.7109 0.263672C28.291 0.0585938 28.1641 0.0488281 25.0977 0.0292969C22.5488 0.00976562 21.8457 0.0390625 21.5527 0.146484ZM27.9199 2.39258C28.0762 2.5293 28.2324 2.72461 28.2617 2.8125C28.291 2.90039 28.4473 4.04297 28.6133 5.3418C28.7793 6.64062 28.9453 7.8125 28.9941 7.93945C29.1211 8.28125 29.2676 8.35938 30.3809 8.74023C30.9375 8.93555 31.8945 9.33594 32.5098 9.62891C33.6328 10.166 34.0234 10.2441 34.4043 10.0391C34.5215 9.98047 35.2832 9.41406 36.084 8.78906C38.5254 6.88477 38.457 6.93359 38.8477 6.93359C39.1797 6.93359 39.3359 7.06055 41.1328 8.86719C42.9199 10.6543 43.0664 10.8203 43.0664 11.1426C43.0664 11.543 43.0078 11.6309 41.2598 13.8672C40.6055 14.707 40.0098 15.4883 39.9512 15.6055C39.7559 15.9766 39.8438 16.377 40.3711 17.4902C40.6641 18.1055 41.0645 19.0625 41.2598 19.6191C41.6406 20.7227 41.7188 20.8789 42.0605 21.0059C42.1777 21.0449 43.3496 21.2207 44.6484 21.3867C45.957 21.5527 47.0996 21.709 47.1875 21.7383C47.2754 21.7676 47.4707 21.9238 47.6074 22.0801L47.8516 22.3828V25V27.6172L47.6074 27.9199C47.4707 28.0762 47.2754 28.2324 47.1875 28.2617C47.0996 28.291 45.9473 28.4473 44.6387 28.6133C43.3301 28.7793 42.168 28.9551 42.0508 29.0039C41.7285 29.1211 41.6309 29.2773 41.2598 30.3809C41.0645 30.9375 40.6641 31.8945 40.3711 32.5098C39.8438 33.623 39.7559 34.0234 39.9512 34.3945C40.0098 34.5117 40.5762 35.2637 41.2109 36.0742C43.1348 38.5645 43.0664 38.457 43.0664 38.8477C43.0664 39.1797 42.9395 39.3359 41.1328 41.1328C39.3457 42.9199 39.1797 43.0664 38.8574 43.0664C38.457 43.0664 38.3691 43.0078 36.1328 41.2598C35.293 40.6055 34.5117 40.0098 34.3945 39.9512C34.0234 39.7559 33.623 39.8438 32.5098 40.3711C31.8945 40.6641 30.9375 41.0645 30.3809 41.2598C29.2773 41.6406 29.1211 41.7188 28.9941 42.0605C28.9551 42.1777 28.7793 43.3496 28.6133 44.6484C28.4473 45.957 28.291 47.0996 28.2617 47.1875C28.2324 47.2754 28.0762 47.4707 27.9199 47.6074L27.6172 47.8516H25H22.3828L22.0801 47.6074C21.9238 47.4707 21.7676 47.2754 21.7383 47.1875C21.709 47.0996 21.5527 45.957 21.3867 44.6484C21.2207 43.3496 21.0449 42.1777 21.0059 42.0605C20.8789 41.7188 20.7227 41.6406 19.6191 41.2598C19.0625 41.0645 18.1055 40.6641 17.4902 40.3711C16.3672 39.834 15.9766 39.7559 15.5957 39.9609C15.4785 40.0195 14.7266 40.5859 13.916 41.2109C11.4746 43.1152 11.543 43.0664 11.1523 43.0664C10.8203 43.0664 10.6641 42.9395 8.86719 41.1328C7.08008 39.3457 6.93359 39.1797 6.93359 38.8574C6.93359 38.457 6.99219 38.3691 8.74023 36.1328C9.39453 35.293 9.99023 34.5117 10.0488 34.3945C10.2441 34.0234 10.1562 33.623 9.62891 32.5098C9.33594 31.8945 8.93555 30.9375 8.74023 30.3809C8.35938 29.2773 8.28125 29.1211 7.93945 28.9941C7.82227 28.9551 6.65039 28.7793 5.35156 28.6133C4.04297 28.4473 2.90039 28.291 2.8125 28.2617C2.72461 28.2324 2.5293 28.0762 2.39258 27.9199L2.14844 27.6172V25V22.3828L2.39258 22.0801C2.5293 21.9238 2.72461 21.7676 2.8125 21.7383C2.90039 21.709 4.04297 21.5527 5.3418 21.3867C6.64062 21.2207 7.8125 21.0547 7.93945 21.0059C8.28125 20.8789 8.35938 20.7324 8.74023 19.6191C8.93555 19.0625 9.33594 18.1055 9.62891 17.4902C10.1562 16.377 10.2441 15.9766 10.0488 15.6055C9.99023 15.4883 9.39453 14.707 8.74023 13.8672C6.99219 11.6309 6.93359 11.543 6.93359 11.1426C6.93359 10.8203 7.08008 10.6543 8.86719 8.86719C10.6641 7.06055 10.8203 6.93359 11.1523 6.93359C11.543 6.93359 11.4746 6.88477 13.916 8.78906C14.7266 9.41406 15.4785 9.98047 15.5957 10.0391C15.9863 10.2539 16.3672 10.166 17.5879 9.58008C18.252 9.26758 19.1699 8.88672 19.6289 8.74023C20.6152 8.42773 20.8789 8.27148 20.9961 7.95898C21.0449 7.82227 21.2207 6.65039 21.3867 5.35156C21.5527 4.04297 21.709 2.90039 21.7383 2.8125C21.7676 2.72461 21.9238 2.5293 22.0801 2.39258L22.3828 2.14844H25H27.6172L27.9199 2.39258Z" fill="#8A8A8A"/>
<path d="M23.1836 14.6875C22.1094 14.8926 21.4062 15.1172 20.4492 15.5762C17.7148 16.8848 15.6738 19.3652 14.8633 22.3633C14.6484 23.1836 14.6094 23.4863 14.6094 24.9512C14.5996 26.8555 14.7559 27.6562 15.4102 29.1699C15.9375 30.4004 16.5918 31.3477 17.6172 32.3828C19.043 33.7988 20.5371 34.6484 22.5098 35.166C23.75 35.4883 26.2012 35.498 27.4512 35.1855C31.2109 34.2383 34.1309 31.3672 35.1367 27.6562C35.3613 26.8066 35.3906 26.5332 35.3906 25C35.3906 23.4668 35.3613 23.1934 35.1367 22.3535C34.1504 18.6914 31.2793 15.8203 27.6562 14.873C26.4844 14.5703 24.2871 14.4824 23.1836 14.6875ZM27.1875 17.041C30.0586 17.8711 32.0898 19.9023 32.9687 22.8223C33.1934 23.5645 33.2324 23.8574 33.2324 25C33.2324 26.1426 33.1934 26.4355 32.9687 27.1777C32.0898 30.0977 30.0977 32.0898 27.1777 32.9687C26.4355 33.1934 26.1426 33.2324 25 33.2324C23.8574 33.2324 23.5644 33.1934 22.8223 32.9687C19.9023 32.0898 17.9102 30.0977 17.0312 27.1777C16.8066 26.4355 16.7676 26.1426 16.7676 25C16.7676 23.8574 16.8066 23.5645 17.0312 22.8223C18.0078 19.5703 20.5664 17.3145 23.8574 16.7871C24.7266 16.6504 26.2402 16.7676 27.1875 17.041Z" fill="#8A8A8A"/>
</svg>
