<svg width="50" height="50" viewBox="0 0 50 50" fill="none" xmlns="http://www.w3.org/2000/svg">
<path d="M16.4941 0.810547C15.8398 1.24023 15.8203 1.37695 15.8203 4.58008C15.8203 7.31445 15.8301 7.46094 16.0254 7.8125C16.2598 8.22266 16.8359 8.59375 17.2363 8.59375C17.5 8.59375 17.5098 8.59375 17.4414 9.10156C17.3242 9.99023 17.0703 10.3906 15.8203 11.6797C14.5312 12.998 14.1602 13.6035 13.9551 14.6875C13.8867 15.0488 13.8672 16.3184 13.8867 18.1055C13.916 20.4785 13.9551 21.0156 14.0918 21.377C14.1797 21.6113 14.2578 21.8164 14.2578 21.8262C14.2578 21.8457 14.0625 21.8848 13.8281 21.9141C12.832 22.0703 12.2852 22.4609 10.1465 24.5996C7.31445 27.4316 7.32422 27.4121 7.23633 30.1758C7.17773 31.9922 7.1582 32.1094 6.91406 32.627C6.76758 32.9199 6.54297 33.2617 6.40625 33.3887L6.17188 33.6035L5.84961 33.4082C5.44922 33.1641 4.61914 33.1348 4.21875 33.3398C3.90625 33.5156 0.263672 37.168 0.107422 37.4707C-0.0390625 37.7637 -0.0292969 38.6328 0.136719 38.9453C0.214844 39.0918 0.625 39.5508 1.05469 39.9707C1.93359 40.8203 2.24609 40.918 2.68555 40.4785C3.125 40.0488 3.02734 39.7266 2.22656 38.9062L1.52344 38.1738L4.98047 34.7168L9.83398 39.5801L14.6973 44.4336L12.959 46.1621L11.2305 47.9004L7.92969 44.5996C4.78516 41.4551 4.59961 41.2891 4.24805 41.2793C3.96484 41.2695 3.82812 41.3281 3.65234 41.543C3.17383 42.0996 3.125 42.041 6.95312 45.8594C10.2539 49.1602 10.5273 49.4043 10.9082 49.4629C11.6895 49.5898 11.9141 49.4434 13.9941 47.373C15.0586 46.3184 15.9961 45.3418 16.0742 45.1953C16.2793 44.8145 16.25 43.9648 16.0254 43.5938L15.8398 43.2812L16.1914 42.9395C16.7188 42.4414 17.2461 42.1973 18.1934 42.0508C19.6484 41.8066 19.9316 41.6309 22.0215 39.5508C23.1738 38.4082 24.0137 37.6562 24.2285 37.5684C24.7559 37.3535 25.3516 36.7676 25.5566 36.2793C25.7129 35.8887 25.752 35.8594 25.9766 35.918C26.4355 36.0449 27.4707 35.9766 27.832 35.8008C28.3008 35.5566 28.7891 35.0879 29.0332 34.6191C29.209 34.2969 29.248 34.0137 29.2773 33.0273C29.3164 31.9727 29.3359 31.8262 29.4727 31.8848C30.5957 32.3145 32.041 31.6797 32.5781 30.5176C32.8027 30.0391 32.8125 29.9512 32.8125 27.2559V24.4727L34.0137 25.6641C35.0586 26.6895 35.2637 26.8555 35.5371 26.8555C35.957 26.8555 36.3281 26.4844 36.3281 26.0645C36.3281 25.8008 36.1719 25.5957 35.293 24.707L34.2676 23.6523L34.5801 23.5449C35.0293 23.3887 35.8789 23.4082 36.3086 23.584C36.543 23.6816 37.4023 24.4727 38.7109 25.7617C41.2598 28.3008 41.2109 28.2031 41.2109 30.2344C41.2109 31.0449 41.2598 31.9434 41.3086 32.2363C41.4453 32.9492 41.8945 33.877 42.3438 34.3652L42.7148 34.7754L35.3125 42.1777L34.8633 41.7578C34.1211 41.0645 32.9785 40.5273 32.2266 40.5273C32.0801 40.5273 31.7285 40.459 31.4453 40.3711C30.9668 40.2344 30.752 40.0586 29.4434 38.7695C27.627 36.9824 27.4609 36.8848 26.9141 37.3145C26.709 37.4707 26.6602 37.5977 26.6602 37.9199C26.6602 38.3203 26.6992 38.3594 28.2031 39.8145C29.9805 41.543 30.4297 41.8262 31.7871 42.041C32.7539 42.1973 33.2812 42.4316 33.8086 42.9395L34.1602 43.2812L33.9746 43.5938C33.75 43.9648 33.7207 44.8145 33.9258 45.1953C34.0039 45.3418 34.9414 46.3184 36.0059 47.373C38.0859 49.4434 38.3105 49.5898 39.0918 49.4629C39.4727 49.4043 39.8145 49.0918 44.6094 44.3066C47.4219 41.5039 49.7852 39.0918 49.8633 38.9453C50.0391 38.6035 50.0391 37.7637 49.8633 37.4219C49.6875 37.1094 46.0352 33.4668 45.7324 33.3105C45.3711 33.125 44.5215 33.1836 44.1504 33.4082L43.8281 33.6035L43.5938 33.3887C43.1543 32.9785 42.8613 32.207 42.8027 31.3574L42.7441 30.5664H43.0859C43.5352 30.5664 43.8477 30.2344 43.8477 29.7656C43.8477 29.3457 43.4961 29.0039 43.0762 29.0039C42.832 29.0039 42.8027 28.9551 42.6953 28.4473C42.4609 27.3242 42.1875 26.9531 39.9414 24.6973C38.1055 22.8516 37.7539 22.5488 37.1582 22.2559C36.5137 21.9434 36.4258 21.9238 35.4004 21.9238C34.3848 21.9238 34.2773 21.9434 33.7109 22.2266C32.7539 22.6953 32.8125 22.9785 32.8125 17.7051C32.8125 12.5977 32.793 12.4512 32.0312 11.4258C31.4258 10.5957 31.1328 9.92188 31.0742 9.21875C31.0352 8.62305 31.0352 8.59375 31.2402 8.59375C31.6113 8.59375 32.1973 8.22266 32.4316 7.8418C32.666 7.4707 32.666 7.44141 32.666 4.58984C32.666 1.85547 32.6562 1.68945 32.4609 1.36719C32.3535 1.18164 32.1191 0.927734 31.9336 0.810547L31.6113 0.585938H16.8262L16.4941 0.810547ZM31.1035 6.98242L27.334 7.03125C23.7891 7.08008 23.5449 7.08984 23.3496 7.26562C23.0762 7.51953 23.0664 8.125 23.3398 8.39844C23.5254 8.58398 23.6621 8.59375 26.5137 8.59375H29.4922V9.08203C29.4922 10.1562 29.8535 11.1426 30.5957 12.1484C30.8398 12.4609 31.084 12.8809 31.1426 13.0859C31.2207 13.3398 31.25 15.8691 31.25 21.6211V29.7852L30.9766 30.0781C30.625 30.4688 30.2246 30.5371 29.8047 30.2734C29.6289 30.166 29.4434 29.9609 29.3945 29.8242C29.3359 29.6777 29.2969 27.832 29.2969 25.2832V20.9863L29.0527 20.752C28.9062 20.5957 28.7012 20.5078 28.5156 20.5078C28.3301 20.5078 28.125 20.5957 27.9785 20.752L27.7344 20.9863V33.7891L27.4512 34.1016C27.2168 34.3652 27.0996 34.4238 26.7578 34.4238C26.416 34.4238 26.2988 34.3652 26.0645 34.1016L25.7812 33.7891V20.9863L25.5371 20.752C25.2246 20.4297 24.7754 20.4297 24.4629 20.752L24.2188 20.9863V35.5469L23.9355 35.8594C23.7012 36.123 23.584 36.1816 23.2422 36.1816C22.9004 36.1816 22.7832 36.123 22.5488 35.8594L22.2656 35.5469V20.9863L22.0215 20.752C21.7188 20.4395 21.2402 20.4297 20.9277 20.7227L20.7031 20.9277V27.2852C20.7031 33.4668 20.6934 33.6523 20.5078 33.9648C20.1465 34.5605 19.4531 34.6094 18.9941 34.0625L18.75 33.7695V26.7578C18.75 21.748 18.7207 19.668 18.6426 19.4922C18.418 19.0039 17.6367 18.9355 17.334 19.3652C17.2168 19.5312 17.1875 19.9023 17.1875 20.9668C17.1875 21.875 17.1484 22.3633 17.0898 22.3633C16.8555 22.3633 16.4062 22.0508 16.0742 21.6602C15.4688 20.957 15.4102 20.5859 15.4492 17.5098C15.4883 14.1699 15.4199 14.3652 17.0898 12.6562C18.457 11.2402 18.8086 10.6348 18.9746 9.36523L19.082 8.59375H19.9121C20.625 8.59375 20.7715 8.56445 20.9668 8.37891C21.2891 8.07617 21.2793 7.5 20.9375 7.23633C20.6934 7.05078 20.5469 7.03125 19.0332 7.03125H17.3828V2.05078L24.248 2.07031L31.1035 2.09961V6.98242ZM15.4199 23.5449L15.7324 23.6523L14.707 24.707C13.8281 25.5957 13.6719 25.8008 13.6719 26.0645C13.6719 26.4844 14.043 26.8555 14.4629 26.8555C14.7363 26.8555 14.9414 26.6895 15.9863 25.6641L17.1875 24.4727V29.209C17.1875 34.4824 17.1973 34.541 17.832 35.1953C18.5059 35.8887 19.4922 36.1621 20.459 35.9082C20.7422 35.8398 20.7715 35.8594 20.8887 36.1914C20.9668 36.3965 21.2109 36.7676 21.4453 37.0117L21.875 37.4707L20.4785 38.8379C19.2383 40.0586 19.0234 40.2344 18.5547 40.3711C18.2715 40.459 17.9199 40.5273 17.7734 40.5273C17.0215 40.5273 15.8789 41.0645 15.1367 41.7578L14.6875 42.1777L7.28516 34.7754L7.65625 34.3652C8.10547 33.877 8.55469 32.9492 8.69141 32.2363C8.74023 31.9434 8.78906 31.0449 8.78906 30.2344C8.78906 28.2031 8.74023 28.3008 11.2891 25.7617C12.4707 24.5898 13.4766 23.6719 13.6719 23.5938C14.082 23.418 14.9805 23.3984 15.4199 23.5449ZM46.7773 36.4746L48.4863 38.1836L38.7695 47.9004L37.041 46.1621L35.3027 44.4336L40.1367 39.5996C42.793 36.9434 44.9902 34.7656 45.0195 34.7656C45.0488 34.7656 45.8398 35.5371 46.7773 36.4746Z" fill="#8A8A8A"/>
</svg>
